<?xml version="1.0" encoding="UTF-8"?>
<svg width="1200pt" height="1200pt" version="1.1" viewBox="0 0 1200 1200" xmlns="http://www.w3.org/2000/svg">
 <path d="m1152 600-422.4-72 141.6-200.4-199.2 142.8-72-422.4-72 422.4-200.4-142.8 142.8 200.4-422.4 72 422.4 72-142.8 200.4 200.4-142.8 72 422.4 72-422.4 200.4 141.6-142.8-199.2zm-36 0h-516l75.602-75.602zm-268.8-247.2-166.8 166.8-6-36-1.1992-7.1992zm-247.2-268.8v507.6l-73.199-73.199 7.1992-44.398zm-247.2 268.8 165.6 165.6-36 6-7.1992 1.1992zm-268.8 247.2h507.6l-73.199 73.199zm268.8 247.2 165.6-165.6 6 36 1.1992 7.1992zm247.2 268.8v-507.6l73.199 73.199zm247.2-268.8-166.8-166.8 36-6 7.1992-1.1992z" fill="#fff"/>
</svg>
